<svg width="48" height="52" viewBox="0 0 48 52" fill="none" xmlns="http://www.w3.org/2000/svg">
<path fill-rule="evenodd" clip-rule="evenodd" d="M5.12593 18.8782H5.11575C5.38632 8.55061 13.7376 0.262695 24.0002 0.262695C34.2627 0.262695 42.614 8.55061 42.8846 18.8782H42.8741V33.0615L46.9663 36.9588C49.1296 39.0191 47.6713 42.6647 44.6839 42.6647H33.7739C33.2551 47.8908 28.8457 51.9725 23.483 51.9725C18.1204 51.9725 13.711 47.8908 13.1922 42.6647H3.31609C0.328655 42.6647 -1.12962 39.0191 1.03373 36.9588L5.12593 33.0615V18.8782ZM19.4766 42.6647H27.4895C27.0303 44.4489 25.4106 45.7673 23.483 45.7673C21.5555 45.7673 19.9358 44.4489 19.4766 42.6647ZM36.6689 18.8782H36.6763C36.4091 11.91 30.7659 6.46787 24.0002 6.46787C17.2344 6.46787 11.5912 11.91 11.324 18.8782H11.3311V34.3025C11.3311 35.0975 11.0451 35.8621 10.5316 36.4595H37.4684C36.9549 35.8621 36.6689 35.0975 36.6689 34.3025V18.8782Z" fill="#F2BC57"/>
</svg>
