<svg width="24" height="24" viewBox="0 0 24 24" fill="white" xmlns="http://www.w3.org/2000/svg">
<path d="M4.79844 4.7998C3.47295 4.7998 2.39844 5.87432 2.39844 7.1998V11.9998C2.39844 13.3253 3.47295 14.3998 4.79844 14.3998L4.79844 10.1998C4.79844 8.54295 6.14158 7.1998 7.79844 7.1998H16.7984C16.7984 5.87432 15.7239 4.7998 14.3984 4.7998H4.79844Z" />
<path fill-rule="evenodd" clip-rule="evenodd" d="M7.19844 11.9998C7.19844 10.6743 8.27295 9.5998 9.59844 9.5998H19.1984C20.5239 9.5998 21.5984 10.6743 21.5984 11.9998V16.7998C21.5984 18.1253 20.5239 19.1998 19.1984 19.1998H9.59844C8.27295 19.1998 7.19844 18.1253 7.19844 16.7998V11.9998ZM14.3984 16.7998C15.7239 16.7998 16.7984 15.7253 16.7984 14.3998C16.7984 13.0743 15.7239 11.9998 14.3984 11.9998C13.073 11.9998 11.9984 13.0743 11.9984 14.3998C11.9984 15.7253 13.073 16.7998 14.3984 16.7998Z" />
</svg>
