<svg width="24" height="24" viewBox="0 0 24 24" fill="none" xmlns="http://www.w3.org/2000/svg">
<path d="M13.2016 3.6001C12.5388 3.6001 12.0016 4.13736 12.0016 4.8001C12.0016 5.46284 12.5388 6.0001 13.2016 6.0001H16.3045L8.75303 13.5516C8.28441 14.0202 8.28441 14.78 8.75303 15.2486C9.22166 15.7173 9.98146 15.7173 10.4501 15.2486L18.0016 7.69715V10.8001C18.0016 11.4628 18.5388 12.0001 19.2016 12.0001C19.8643 12.0001 20.4016 11.4628 20.4016 10.8001V4.8001C20.4016 4.13736 19.8643 3.6001 19.2016 3.6001H13.2016Z" fill="white"/>
<path d="M6.00156 6.0001C4.67608 6.0001 3.60156 7.07461 3.60156 8.4001V18.0001C3.60156 19.3256 4.67608 20.4001 6.00156 20.4001H15.6016C16.927 20.4001 18.0016 19.3256 18.0016 18.0001V14.4001C18.0016 13.7374 17.4643 13.2001 16.8016 13.2001C16.1388 13.2001 15.6016 13.7374 15.6016 14.4001V18.0001H6.00156V8.4001L9.60156 8.4001C10.2643 8.4001 10.8016 7.86284 10.8016 7.2001C10.8016 6.53736 10.2643 6.0001 9.60156 6.0001H6.00156Z" fill="white"/>
</svg>
