<svg width="20" height="12" viewBox="0 0 20 12" fill="none" xmlns="http://www.w3.org/2000/svg">
    <g id="logo">
        <g id="icon">
            <path id="Vector" d="M12.3314 1.28308H7.08203V10.717H12.3314V1.28308Z" fill="#FF5F00"/>
            <path id="&#60;Path&#62;" d="M7.41492 6.00112C7.41396 5.09244 7.61976 4.19544 8.01675 3.37807C8.41375 2.5607 8.99152 1.84437 9.70633 1.28333C8.82128 0.587782 7.75841 0.15526 6.63917 0.035201C5.51994 -0.0848583 4.38951 0.112388 3.37708 0.604397C2.36465 1.09641 1.51106 1.86333 0.913876 2.81751C0.31669 3.77169 0 4.87463 0 6.00029C0 7.12594 0.31669 8.22888 0.913876 9.18306C1.51106 10.1372 2.36465 10.9042 3.37708 11.3962C4.38951 11.8882 5.51994 12.0854 6.63917 11.9654C7.75841 11.8453 8.82128 11.4128 9.70633 10.7172C8.99174 10.1564 8.4141 9.44032 8.01712 8.62325C7.62013 7.80618 7.41421 6.90952 7.41492 6.00112Z" fill="#EB001B"/>
            <path id="Vector_2" d="M19.4123 6.00083C19.4123 7.12657 19.0955 8.22958 18.4982 9.1838C17.9009 10.138 17.0472 10.9049 16.0346 11.3969C15.0221 11.8888 13.8915 12.0859 12.7722 11.9657C11.6529 11.8455 10.5901 11.4127 9.70508 10.717C10.4194 10.1556 10.9969 9.43933 11.3939 8.62222C11.791 7.80511 11.9974 6.90849 11.9974 6C11.9974 5.09151 11.791 4.19489 11.3939 3.37778C10.9969 2.56067 10.4194 1.84441 9.70508 1.28305C10.5901 0.587281 11.6529 0.15455 12.7722 0.034318C13.8915 -0.0859137 15.0221 0.111206 16.0346 0.603144C17.0472 1.09508 17.9009 1.86199 18.4982 2.8162C19.0955 3.77042 19.4123 4.87343 19.4123 5.99917V6.00083Z" fill="#F79E1B"/>
        </g>
    </g>
</svg>
