<svg width="19" height="18" viewBox="0 0 19 18" fill="none" xmlns="http://www.w3.org/2000/svg">
    <g id="building-02">
        <path id="Icon" d="M11.75 15.75V11.7C11.75 11.28 11.75 11.0699 11.6683 10.9095C11.5963 10.7684 11.4816 10.6537 11.3405 10.5817C11.1801 10.5 10.97 10.5 10.55 10.5H8.45C8.02996 10.5 7.81994 10.5 7.65951 10.5817C7.51839 10.6537 7.40365 10.7684 7.33175 10.9095C7.25 11.0699 7.25 11.28 7.25 11.7V15.75M2.75 5.25C2.75 6.49264 3.75736 7.5 5 7.5C6.24264 7.5 7.25 6.49264 7.25 5.25C7.25 6.49264 8.25736 7.5 9.5 7.5C10.7426 7.5 11.75 6.49264 11.75 5.25C11.75 6.49264 12.7574 7.5 14 7.5C15.2426 7.5 16.25 6.49264 16.25 5.25M5.15 15.75H13.85C14.6901 15.75 15.1101 15.75 15.431 15.5865C15.7132 15.4427 15.9427 15.2132 16.0865 14.931C16.25 14.6101 16.25 14.1901 16.25 13.35V4.65C16.25 3.80992 16.25 3.38988 16.0865 3.06901C15.9427 2.78677 15.7132 2.5573 15.431 2.41349C15.1101 2.25 14.6901 2.25 13.85 2.25H5.15C4.30992 2.25 3.88988 2.25 3.56901 2.41349C3.28677 2.5573 3.0573 2.78677 2.91349 3.06901C2.75 3.38988 2.75 3.80992 2.75 4.65V13.35C2.75 14.1901 2.75 14.6101 2.91349 14.931C3.0573 15.2132 3.28677 15.4427 3.56901 15.5865C3.88988 15.75 4.30992 15.75 5.15 15.75Z" stroke="black" stroke-width="1.5" stroke-linecap="round" stroke-linejoin="round"/>
    </g>
</svg>
