<svg width="32" height="42" viewBox="0 0 32 42" fill="none" xmlns="http://www.w3.org/2000/svg">
    <g id="Vector">
        <path d="M9.47484 38.6603C9.47484 40.0536 10.6009 41.1831 11.99 41.1831H17.3638C18.7529 41.1831 19.879 40.0536 19.879 38.6603L19.879 33.2703C19.879 31.877 18.7529 30.7476 17.3638 30.7476H13.1051C11.716 30.7476 10.5899 29.6181 10.5899 28.2248L10.5899 13.1446C10.5899 11.7514 9.46384 10.6219 8.07474 10.6219H2.5152C1.12609 10.6219 1.46831e-06 11.7514 1.34687e-06 13.1446L0 28.5975C-1.21439e-07 29.9908 1.12609 31.1203 2.5152 31.1203H6.95965C8.34875 31.1203 9.47484 32.2498 9.47484 33.6431V38.6603Z" fill="white"/>
        <path d="M10.4045 7.91274C10.4045 9.30603 11.5306 10.4355 12.9197 10.4355L18.1073 10.4355C19.4964 10.4355 20.6225 11.565 20.6225 12.9583L20.6225 28.5975C20.6225 29.9908 21.7486 31.1203 23.1377 31.1203H28.6972C30.0863 31.1203 31.2124 29.9908 31.2124 28.5975V12.9583C31.2124 11.565 30.0863 10.4355 28.6972 10.4355L23.3238 10.4355C21.9347 10.4355 20.8087 9.30603 20.8087 7.91274V2.52278C20.8087 1.12949 19.6826 5.9301e-07 18.2935 4.71205e-07L12.9197 0C11.5306 -1.21805e-07 10.4045 1.12949 10.4045 2.52278V7.91274Z" fill="white"/>
        <path d="M15.6062 17.0448C17.5216 17.0448 19.0743 18.6022 19.0743 20.5233C19.0743 22.4445 17.5216 24.0018 15.6062 24.0018C13.6909 24.0018 12.1382 22.4445 12.1382 20.5233C12.1382 18.6022 13.6909 17.0448 15.6062 17.0448Z" fill="white"/>
    </g>
</svg>
