<svg width="18" height="18" viewBox="0 0 18 18" fill="none" xmlns="http://www.w3.org/2000/svg">
<path d="M15.7139 2.28607C14.6658 1.23793 12.9664 1.23798 11.9183 2.28618L2.95577 11.2498C2.65103 11.5545 2.43683 11.9379 2.337 12.3572L1.51531 15.8083C1.47006 15.9983 1.52664 16.1982 1.66476 16.3363C1.80289 16.4744 2.00278 16.531 2.1928 16.4858L5.64374 15.6641C6.06314 15.5642 6.4466 15.35 6.75143 15.0451L15.714 6.08146C16.762 5.03334 16.762 3.33413 15.7139 2.28607ZM12.7138 3.08163C13.3226 2.47281 14.3096 2.47279 14.9184 3.08157C15.5271 3.6903 15.5272 4.67724 14.9185 5.28601L14.25 5.95459L12.0455 3.75009L12.7138 3.08163ZM11.25 4.54563L13.4545 6.75014L5.95589 14.2496C5.79828 14.4073 5.60001 14.5181 5.38316 14.5697L2.82143 15.1796L3.4314 12.6178C3.48302 12.401 3.59376 12.2028 3.75131 12.0452L11.25 4.54563Z" fill="#44405B"/>
</svg>
