<svg width="18" height="18" viewBox="0 0 18 18" fill="none" xmlns="http://www.w3.org/2000/svg">
<path d="M12.25 9.25C12.25 8.2835 11.4665 7.5 10.5 7.5H4.5C3.5335 7.5 2.75 8.2835 2.75 9.25V9.75C2.75 10.8289 3.26536 11.4053 4.12603 11.9505C4.97516 12.4884 6.15255 12.75 7.5 12.75C9.08881 12.75 10.2749 12.4915 11.0693 11.9453C11.8824 11.3863 12.25 10.8012 12.25 9.75V9.25ZM4.25 9.25C4.25 9.11193 4.36193 9 4.5 9H10.5C10.6381 9 10.75 9.11193 10.75 9.25V9.75C10.75 10.0164 10.7154 10.0786 10.6479 10.2C10.6309 10.2305 10.6118 10.2649 10.5906 10.3072C10.4871 10.5142 10.3266 10.6846 10.0878 10.8227C9.59534 11.1074 8.77899 11.25 7.5 11.25C6.48116 11.25 5.6537 11.1102 5.08981 10.8173C4.81113 10.6725 4.60366 10.4939 4.46536 10.2822C4.43323 10.2331 4.40434 10.1951 4.37894 10.1617C4.29577 10.0522 4.25 9.99199 4.25 9.75V9.25ZM10 4.5C10 5.88071 8.88071 7 7.5 7C6.11929 7 5 5.88071 5 4.5C5 3.11929 6.11929 2 7.5 2C8.88071 2 10 3.11929 10 4.5ZM8.5 4.5C8.5 3.94772 8.05228 3.5 7.5 3.5C6.94772 3.5 6.5 3.94772 6.5 4.5C6.5 5.05228 6.94772 5.5 7.5 5.5C8.05228 5.5 8.5 5.05228 8.5 4.5ZM0 3.25C0 1.45507 1.45507 0 3.25 0H11.75C13.5449 0 15 1.45507 15 3.25V11.75C15 13.5449 13.5449 15 11.75 15H3.25C1.45507 15 0 13.5449 0 11.75V3.25ZM3.25 1.5C2.2835 1.5 1.5 2.2835 1.5 3.25V11.75C1.5 12.7165 2.2835 13.5 3.25 13.5H11.75C12.7165 13.5 13.5 12.7165 13.5 11.75V3.25C13.5 2.2835 12.7165 1.5 11.75 1.5H3.25ZM5.74999 17.5C4.59938 17.5 3.58843 16.902 3.01089 16H12.25C14.3211 16 16 14.321 16 12.25V3.01086C16.9021 3.5884 17.5 4.59935 17.5 5.74996V12.25C17.5 15.1494 15.1495 17.5 12.25 17.5H5.74999Z" fill="#44405B"/>
</svg>
