<svg width="28" height="28" viewBox="0 0 28 28" fill="none" xmlns="http://www.w3.org/2000/svg">
<g id="Icon Frame">
<circle id="Ellipse 41" cx="13.9993" cy="14.0001" r="2.33333" stroke="#292929" stroke-width="2.33333"/>
<path id="Vector" d="M6.29779 6.85902C5.2131 8.02813 4.42546 9.41555 3.96685 10.902L5.83271 11.9792C7.38827 12.8773 7.38827 15.1226 5.83271 16.0207L3.96485 17.0991C4.1926 17.8341 4.50522 18.5554 4.90621 19.2499C5.30718 19.9445 5.77551 20.5758 6.29818 21.1406L8.16607 20.0621C9.72163 19.164 11.6661 20.2867 11.6661 22.0829L11.6661 24.2374C13.1827 24.5835 14.778 24.5951 16.3328 24.2403L16.3328 22.0829C16.3328 20.2867 18.2773 19.1641 19.8328 20.0622L21.7011 21.1409C22.7858 19.9718 23.5735 18.5844 24.0321 17.0979L22.1662 16.0206C20.6106 15.1225 20.6106 12.8773 22.1662 11.9792L24.0341 10.9007C23.8063 10.1657 23.4937 9.44445 23.0927 8.74995C22.6918 8.05543 22.2234 7.42404 21.7007 6.85929L19.8328 7.9377C18.2773 8.83581 16.3328 7.71318 16.3328 5.91698L16.3328 3.76245C14.8163 3.41641 13.2209 3.40482 11.6661 3.75964L11.6661 5.91695C11.6661 7.71315 9.72163 8.83578 8.16607 7.93768L6.29779 6.85902Z" stroke="#292929" stroke-width="2.33333" stroke-linejoin="round"/>
</g>
</svg>
