<svg width="22" height="22" viewBox="0 0 22 22" fill="none" xmlns="http://www.w3.org/2000/svg">
<path d="M14.5947 1.5301C13.716 0.651424 12.2914 0.651424 11.4127 1.5301L1.53401 11.4088C0.655332 12.2875 0.655329 13.7121 1.53401 14.5908L2.70555 15.7623C3.21624 16.273 3.93312 16.1816 4.36627 15.9241C4.55228 15.8135 4.7693 15.7498 5.00349 15.7498C5.69385 15.7498 6.25349 16.3095 6.25349 16.9998C6.25349 17.234 6.1898 17.451 6.07924 17.6371C5.82177 18.0702 5.73033 18.7871 6.24102 19.2978L7.41269 20.4694C8.29137 21.3481 9.71599 21.3481 10.5947 20.4694L20.4734 10.5908C21.352 9.71208 21.352 8.28747 20.4734 7.40878L19.3017 6.23718C18.791 5.72642 18.074 5.81795 17.6409 6.07549C17.4548 6.18611 17.2377 6.24983 17.0035 6.24983C16.3131 6.24983 15.7535 5.69019 15.7535 4.99983C15.7535 4.76558 15.8172 4.54851 15.9278 4.36247C16.1854 3.92931 16.2769 3.21233 15.7661 2.70158L14.5947 1.5301Z" fill="#47BA3D"/>
</svg>
