<svg width="25" height="25" viewBox="0 0 25 25" fill="none" xmlns="http://www.w3.org/2000/svg">
<path d="M10.1008 4.33721C10.1008 3.67447 10.638 3.13721 11.3008 3.13721H13.7008C14.3635 3.13721 14.9008 3.67447 14.9008 4.33721C14.9008 4.99995 14.3635 5.53721 13.7008 5.53721H11.3008C10.638 5.53721 10.1008 4.99995 10.1008 4.33721Z" fill="black"/>
<path d="M7.70078 4.33721C6.3753 4.33721 5.30078 5.41172 5.30078 6.73721V19.9372C5.30078 21.2627 6.3753 22.3372 7.70078 22.3372H17.3008C18.6263 22.3372 19.7008 21.2627 19.7008 19.9372V6.73721C19.7008 5.41172 18.6263 4.33721 17.3008 4.33721C17.3008 6.32543 15.689 7.93721 13.7008 7.93721H11.3008C9.31256 7.93721 7.70078 6.32543 7.70078 4.33721Z" fill="black"/>
</svg>
