<svg width="21" height="20" viewBox="0 0 21 20" fill="none" xmlns="http://www.w3.org/2000/svg">
<path fill-rule="evenodd" clip-rule="evenodd" d="M4.49844 3.9999C4.49844 2.01168 6.11021 0.399902 8.09844 0.399902C9.02046 0.399902 9.86153 0.746528 10.4984 1.31658C11.1353 0.746528 11.9764 0.399902 12.8984 0.399902C14.8867 0.399902 16.4984 2.01168 16.4984 3.9999C16.4984 4.42066 16.4263 4.82457 16.2936 5.1999H17.6984C19.0239 5.1999 20.0984 6.27442 20.0984 7.5999C20.0984 8.92539 19.0239 9.9999 17.6984 9.9999H11.6984V8.7999C11.6984 8.13716 11.1612 7.5999 10.4984 7.5999C9.8357 7.5999 9.29844 8.13716 9.29844 8.7999V9.9999H3.29844C1.97295 9.9999 0.898438 8.92539 0.898438 7.5999C0.898438 6.27442 1.97295 5.1999 3.29844 5.1999H4.70328C4.57062 4.82457 4.49844 4.42066 4.49844 3.9999ZM9.29844 5.1999V3.9999C9.29844 3.33716 8.76118 2.7999 8.09844 2.7999C7.4357 2.7999 6.89844 3.33716 6.89844 3.9999C6.89844 4.66264 7.4357 5.1999 8.09844 5.1999H9.29844ZM12.8984 5.1999C13.5612 5.1999 14.0984 4.66264 14.0984 3.9999C14.0984 3.33716 13.5612 2.7999 12.8984 2.7999C12.2357 2.7999 11.6984 3.33716 11.6984 3.9999V5.1999H12.8984Z" fill="white"/>
<path d="M9.29844 11.1999H2.09844V17.1999C2.09844 18.5254 3.17295 19.5999 4.49844 19.5999H9.29844V11.1999Z" fill="white"/>
<path d="M11.6984 19.5999H16.4984C17.8239 19.5999 18.8984 18.5254 18.8984 17.1999V11.1999H11.6984V19.5999Z" fill="white"/>
</svg>
