<svg width="24" height="24" viewBox="0 0 24 24" fill="none" xmlns="http://www.w3.org/2000/svg">
<path d="M18.2532 7.00006C18.2532 7.69042 17.6935 8.25006 17.0032 8.25006C16.3128 8.25006 15.7532 7.69042 15.7532 7.00006C15.7532 6.30971 16.3128 5.75006 17.0032 5.75006C17.6935 5.75006 18.2532 6.30971 18.2532 7.00006ZM15.5031 2.05005C11.8889 2.05005 8.95312 4.98584 8.95312 8.60005C8.95312 8.98726 9.0033 9.36041 9.06359 9.70406C9.08139 9.80553 9.04883 9.89368 8.99436 9.94815L2.75858 16.1839C2.24286 16.6997 1.95312 17.3991 1.95312 18.1285V20.3C1.95312 21.2665 2.73663 22.05 3.70312 22.05H6.20312C7.16962 22.05 7.95312 21.2665 7.95312 20.3V19.05H9.70312C10.3935 19.05 10.9531 18.4904 10.9531 17.8V16.05H12.7031C13.378 16.05 13.928 15.5152 13.9523 14.8463C14.449 14.9741 14.9728 15.05 15.5031 15.05C19.1173 15.05 22.0531 12.1143 22.0531 8.50005C22.0531 4.8689 19.1002 2.05005 15.5031 2.05005ZM10.4531 8.60005C10.4531 5.81426 12.7173 3.55005 15.5031 3.55005C18.3061 3.55005 20.5531 5.7312 20.5531 8.50005C20.5531 11.2858 18.2889 13.55 15.5031 13.55C14.8238 13.55 14.1245 13.379 13.4986 13.1107C13.2668 13.0114 13.0007 13.0351 12.7903 13.1739C12.5798 13.3127 12.4531 13.5479 12.4531 13.8V14.55H10.7031C10.0128 14.55 9.45312 15.1097 9.45312 15.8V17.55H7.70312C7.01277 17.55 6.45312 18.1097 6.45312 18.8V20.3C6.45312 20.4381 6.3412 20.55 6.20312 20.55H3.70312C3.56505 20.55 3.45312 20.4381 3.45312 20.3V18.1285C3.45312 17.797 3.58482 17.479 3.81924 17.2446L10.055 11.0088C10.4734 10.5904 10.6388 10.002 10.541 9.44485C10.4873 9.13889 10.4531 8.86245 10.4531 8.60005Z" fill="#44405B"/>
</svg>
