<svg width="14" height="19" viewBox="0 0 14 19" fill="none" xmlns="http://www.w3.org/2000/svg">
    <path id="Icon/Lock" fill-rule="evenodd" clip-rule="evenodd" d="M14 7.87499C14 6.90899 13.216 6.12499 12.25 6.12499H11.375V4.37499C11.375 1.95913 9.41588 0 7.00001 0C4.58412 0 2.625 1.95913 2.625 4.37499V6.12499H1.75C0.784008 6.12499 0 6.90899 0 7.87499V16.625C0 17.591 0.784008 18.3749 1.75 18.3749H12.25C13.216 18.3749 14 17.591 14 16.625V7.87499ZM4.375 4.3766C4.375 2.92686 5.55021 1.75161 7 1.75161C8.44978 1.75161 9.62499 2.92686 9.62499 4.3766V6.1266H4.375V4.3766Z" fill="black"/>
</svg>
