<svg width="21" height="20" viewBox="0 0 21 20" fill="none" xmlns="http://www.w3.org/2000/svg">
<path fill-rule="evenodd" clip-rule="evenodd" d="M20.0984 9.9999C20.0984 15.3018 15.8004 19.5999 10.4984 19.5999C5.1965 19.5999 0.898438 15.3018 0.898438 9.9999C0.898438 4.69797 5.1965 0.399902 10.4984 0.399902C15.8004 0.399902 20.0984 4.69797 20.0984 9.9999ZM10.4985 6.3999C10.0558 6.3999 9.66755 6.63896 9.45826 7.00077C9.12641 7.57445 8.39233 7.77048 7.81866 7.43863C7.24499 7.10678 7.04895 6.3727 7.3808 5.79903C8.00145 4.72612 9.16443 3.9999 10.4985 3.9999C12.4867 3.9999 14.0985 5.61168 14.0985 7.5999C14.0985 9.16737 13.0967 10.5009 11.6985 10.9951V11.1999C11.6985 11.8626 11.1612 12.3999 10.4985 12.3999C9.83571 12.3999 9.29845 11.8626 9.29845 11.1999V9.9999C9.29845 9.33716 9.83571 8.7999 10.4985 8.7999C11.1612 8.7999 11.6985 8.26264 11.6985 7.5999C11.6985 6.93716 11.1612 6.3999 10.4985 6.3999ZM10.4984 15.9999C11.1612 15.9999 11.6984 15.4626 11.6984 14.7999C11.6984 14.1372 11.1612 13.5999 10.4984 13.5999C9.8357 13.5999 9.29844 14.1372 9.29844 14.7999C9.29844 15.4626 9.8357 15.9999 10.4984 15.9999Z" fill="white"/>
</svg>
