<svg width="32" height="32" viewBox="0 0 32 32" fill="none" xmlns="http://www.w3.org/2000/svg">
    <g id="receipt-check">
        <path id="Icon" d="M12.0007 14L14.6673 16.6667L20.6673 10.6667M26.6673 28V10.4C26.6673 8.15979 26.6673 7.03969 26.2313 6.18404C25.8479 5.43139 25.2359 4.81947 24.4833 4.43597C23.6276 4 22.5075 4 20.2673 4H11.734C9.49377 4 8.37367 4 7.51802 4.43597C6.76537 4.81947 6.15345 5.43139 5.76996 6.18404C5.33398 7.03969 5.33398 8.15979 5.33398 10.4V28L9.00065 25.3333L12.334 28L16.0007 25.3333L19.6673 28L23.0007 25.3333L26.6673 28Z" stroke="black" stroke-width="2" stroke-linecap="round" stroke-linejoin="round"/>
    </g>
</svg>
