<svg width="24" height="24" viewBox="0 0 24 24" fill="none" xmlns="http://www.w3.org/2000/svg">
<path d="M14.534 3.59101C14.2411 3.29811 13.7662 3.29811 13.4734 3.59101L3.59467 13.4697C3.30178 13.7626 3.30178 14.2375 3.59467 14.5303L4.66289 15.5986C5.06011 15.3765 5.51807 15.2501 6.00349 15.2501C7.52228 15.2501 8.75349 16.4813 8.75349 18.0001C8.75349 18.4855 8.62708 18.9435 8.405 19.3407L9.47335 20.409C9.76624 20.7019 10.2411 20.7019 10.534 20.409L20.4127 10.5303C20.7056 10.2375 20.7056 9.76258 20.4127 9.46969L19.3444 8.40141C18.9471 8.6236 18.489 8.75008 18.0035 8.75008C16.4847 8.75008 15.2535 7.51886 15.2535 6.00008C15.2535 5.51452 15.38 5.05645 15.6022 4.65916L14.534 3.59101ZM12.4127 2.53035C13.2914 1.65167 14.716 1.65167 15.5947 2.53035L16.7661 3.70183C17.2769 4.21258 17.1854 4.92955 16.9278 5.36271C16.8172 5.54875 16.7535 5.76583 16.7535 6.00008C16.7535 6.69043 17.3131 7.25008 18.0035 7.25008C18.2377 7.25008 18.4548 7.18635 18.6409 7.07574C19.074 6.81819 19.791 6.72667 20.3017 7.23742L21.4734 8.40903C22.352 9.28771 22.352 10.7123 21.4734 11.591L11.5947 21.4697C10.716 22.3484 9.29137 22.3484 8.41269 21.4697L7.24102 20.298C6.73033 19.7873 6.82177 19.0705 7.07924 18.6373C7.1898 18.4513 7.25349 18.2343 7.25349 18.0001C7.25349 17.3097 6.69385 16.7501 6.00349 16.7501C5.7693 16.7501 5.55228 16.8138 5.36627 16.9243C4.93312 17.1818 4.21624 17.2732 3.70555 16.7625L2.53401 15.591C1.65533 14.7123 1.65533 13.2877 2.53401 12.409L12.4127 2.53035Z" fill="#F2BC57"/>
</svg>
