<svg width="36" height="30" viewBox="0 0 36 30" fill="none" xmlns="http://www.w3.org/2000/svg">
<path d="M31.77 0.777832C33.9791 0.777832 35.77 2.56869 35.77 4.77783V25.2304C35.77 27.4396 33.9791 29.2304 31.77 29.2304H4.22266C2.01352 29.2304 0.222656 27.4396 0.222656 25.2304V4.77783C0.222656 2.56869 2.01352 0.777832 4.22266 0.777832H31.77ZM31.77 3.4445H4.22266C3.48628 3.4445 2.88932 4.04145 2.88932 4.77783V25.2304C2.88932 25.9668 3.48628 26.5638 4.22266 26.5638L9.10977 26.5627L9.11155 21.6667C9.11155 20.0344 10.3686 18.6957 11.9675 18.5659L12.2227 18.5556H23.7688C25.4011 18.5556 26.7398 19.8127 26.8696 21.4116L26.8799 21.6667L26.8787 26.5627L31.77 26.5638C32.5063 26.5638 33.1033 25.9668 33.1033 25.2304V4.77783C33.1033 4.04145 32.5063 3.4445 31.77 3.4445ZM23.7688 21.2223H12.2227C12.0123 21.2223 11.836 21.3685 11.7899 21.5648L11.7782 21.6667L11.7764 26.5627H24.212L24.2132 21.6667C24.2132 21.4563 24.067 21.2801 23.8707 21.234L23.7688 21.2223ZM18.0004 6.11199C20.946 6.11199 23.3338 8.4998 23.3338 11.4453C23.3338 14.3908 20.946 16.7787 18.0004 16.7787C15.0549 16.7787 12.6671 14.3908 12.6671 11.4453C12.6671 8.4998 15.0549 6.11199 18.0004 6.11199ZM18.0004 8.77865C16.5277 8.77865 15.3338 9.97256 15.3338 11.4453C15.3338 12.9181 16.5277 14.112 18.0004 14.112C19.4732 14.112 20.6671 12.9181 20.6671 11.4453C20.6671 9.97256 19.4732 8.77865 18.0004 8.77865Z" fill="#44405B"/>
</svg>
